PathFileType	4	(X/Y/Z)	/Users/niels/Desktop/University/Third Semester/Perception and Action/Exam/Gymnastics Motion Tracking/Code for Gym Tracking/Analyzed Data/Webcam_Backflip/id4_1_trajectory_Sports2D/id4_1_trajectory_Sports2D_px_person00.trc
DataRate	CameraRate	NumFrames	NumMarkers	Units	OrigDataRate	OrigDataStartFrame	OrigNumFrames
29.702970297029704	29.702970297029704	10	22	m	29.702970297029704	25	101
Frame#	Time	Hip			RHip			RKnee			RAnkle			RBigToe			RSmallToe			RHeel			LHip			LKnee			LAnkle			LBigToe			LSmallToe			LHeel			Neck			Head			Nose			RShoulder			RElbow			RWrist			LShoulder			LElbow			LWrist		
		X1	Y1	Z1	X2	Y2	Z2	X3	Y3	Z3	X4	Y4	Z4	X5	Y5	Z5	X6	Y6	Z6	X7	Y7	Z7	X8	Y8	Z8	X9	Y9	Z9	X10	Y10	Z10	X11	Y11	Z11	X12	Y12	Z12	X13	Y13	Z13	X14	Y14	Z14	X15	Y15	Z15	X16	Y16	Z16	X17	Y17	Z17	X18	Y18	Z18	X19	Y19	Z19	X20	Y20	Z20	X21	Y21	Z21	X22	Y22	Z22
25	0.8416666666666666	0.9528273657188163	-0.3181222993536426	0.0	0.9416548882934904	-0.32106885077547553	0.0	0.8758910040017258	-0.442805991777027	0.0	0.7795884319304628	-0.45057047301863096	0.0	0.7700631226175434	-0.5158406982401552	0.0	0.7577259578199538	-0.5044542816318697	0.0	0.7621534710318096	-0.44029687296173226	0.0	0.9701889618511305	-0.3159508245881453	0.0	0.8894687319491229	-0.4375084658629354	0.0	0.8281101941485766	-0.45092837323847024	0.0	0.7746362055567239	-0.5194023381158253	0.0	0.8158930007175723	-0.5214203914487567	0.0	0.7989564273770298	-0.43863353818812273	0.0	1.0883554498570183	-0.37613941367877135	0.0	1.1724000566206716	-0.41866885011490235	0.0	1.120575604821444	-0.42127404100087973	0.0	1.0470379026645944	-0.3721525022778475	0.0	0.9748682206232511	-0.42883660777268656	0.0	0.9517185247148848	-0.5077706625417894	0.0	1.0986678800778409	-0.35729496365229646	0.0	1.0701191070690206	-0.39970918343328404	0.0	1.0424176376277818	-0.4846468051532973	0.0
26	0.8753333333333333	0.942591279462083	-0.35216173188838445	0.0	0.9326828901003005	-0.3536343983701158	0.0	0.8839781713981927	-0.48121180225218535	0.0	0.7914098777542788	-0.5263463450482924	0.0	0.7959818391899623	-0.5927412217168411	0.0	0.7816767434502482	-0.5829940921933517	0.0	0.7719600830642603	-0.5222385867017414	0.0	0.9585093786983452	-0.35062727039202735	0.0	0.8909095615840871	-0.4762924789648654	0.0	0.8258335015791952	-0.5256174699694096	0.0	0.80026408663656	-0.5896628031938312	0.0	0.8278457082865897	-0.5884643690439182	0.0	0.798261761640114	-0.5223403729545395	0.0	1.0866590374171805	-0.37581474493801353	0.0	1.1791179760376274	-0.40601513302541953	0.0	1.1269892494790714	-0.4165666510507486	0.0	1.0473217559915704	-0.37778637244882635	0.0	0.9917773185574708	-0.4533820626782216	0.0	0.9920158553467847	-0.5378031835041152	0.0	1.0953239054745119	-0.357663860728018	0.0	1.0790962255224503	-0.41843452747010695	0.0	1.077942085775377	-0.5006116635737758	0.0
27	0.9089999999999999	0.9341575728643808	-0.39284774696025304	0.0	0.9257939249533071	-0.39284846235265297	0.0	0.8926032532809549	-0.5238555146005968	0.0	0.8117545222250635	-0.6023449992521356	0.0	0.8289470153747123	-0.6649813303790383	0.0	0.8140202379454479	-0.657856748396331	0.0	0.791985074633832	-0.6048097125972618	0.0	0.9482588605705107	-0.3921728858401182	0.0	0.8963190731120723	-0.5201963051500772	0.0	0.8334789001445964	-0.600723889043467	0.0	0.8344722079555656	-0.6571049975228773	0.0	0.8484183672950162	-0.6540266130087359	0.0	0.8085729297508749	-0.6049861366322526	0.0	1.0794633065380514	-0.3822849040646498	0.0	1.1773580469757117	-0.39963834061562553	0.0	1.1258784663375103	-0.41809419921109015	0.0	1.0434292809038015	-0.38923732601957095	0.0	1.0085410531185717	-0.4755756246307175	0.0	1.0324304254759225	-0.5577372254774186	0.0	1.0868448110825075	-0.364246901533498	0.0	1.0868978515375913	-0.43487133191313077	0.0	1.1114775355891673	-0.5086112393919995	0.0
28	0.9426666666666665	0.9281208034087569	-0.4394189622604794	0.0	0.9214497538287381	-0.43837742642200345	0.0	0.9019204848332473	-0.5714371651116744	0.0	0.8366174493264322	-0.6765152512038553	0.0	0.863995458152523	-0.7319837594720943	0.0	0.8495436211231995	-0.7282102658725002	0.0	0.817647019062653	-0.6848091391550749	0.0	0.9404435349586641	-0.4394460886439319	0.0	0.9051006877046386	-0.5689318934911073	0.0	0.8493323512658805	-0.6733751880691164	0.0	0.8713302388933003	-0.7207297923565389	0.0	0.8742181167748599	-0.7169059821552889	0.0	0.8267935541447679	-0.6829417435578636	0.0	1.068395897410979	-0.3958021401141112	0.0	1.1686371301125429	-0.40006718735248414	0.0	1.1189507035245463	-0.42623354373435157	0.0	1.0363475258790216	-0.4062809673151244	0.0	1.023275922899038	-0.49523485284760965	0.0	1.0684579285970746	-0.5679957423095018	0.0	1.0739520614025568	-0.3771244352066078	0.0	1.0923630383087444	-0.448944008595214	0.0	1.1385512238607771	-0.5092506838761997	0.0
29	0.9763333333333333	0.9249997887133832	-0.49045462872046236	0.0	0.9197876995988128	-0.48904607324164323	0.0	0.9117354870860432	-0.6235653257054684	0.0	0.8614904246161461	-0.7472890106102441	0.0	0.8965458904060215	-0.7936912081220789	0.0	0.8832271059521477	-0.7938133430635135	0.0	0.8436870001119429	-0.7597186201834013	0.0	0.935715447127406	-0.4908693246515264	0.0	0.9159886569885612	-0.6214100695630993	0.0	0.8690112888094307	-0.7421082359213685	0.0	0.9056576876981184	-0.7802430190486288	0.0	0.9005080280553901	-0.776421817255644	0.0	0.8480050606322718	-0.7544612205756851	0.0	1.0548911452457548	-0.415837802688206	0.0	1.15424709550863	-0.4071344372978653	0.0	1.1078269268230925	-0.4404994939997189	0.0	1.0270665372087069	-0.42816666980922136	0.0	1.0344534352898076	-0.5123918680416144	0.0	1.0967120075738908	-0.5696853892213395	0.0	1.0576108114942746	-0.3961680784045322	0.0	1.0944235659819823	-0.4615727293572211	0.0	1.15584971834894	-0.5042418906976799	0.0
30	1.01	0.9248408358102698	-0.5437734529073055	0.0	0.9204213083455175	-0.5426250473125612	0.0	0.9213442778652766	-0.6784202430022729	0.0	0.882299142302734	-0.812885861120791	0.0	0.9229103321328264	-0.8496105948948939	0.0	0.9108803710647981	-0.8538817009060106	0.0	0.8654604091787994	-0.8271722625599812	0.0	0.9343044508531132	-0.5443850297463225	0.0	0.9276470924601752	-0.67557157056925	0.0	0.8879647574973671	-0.8057198484876245	0.0	0.9338945098354734	-0.8350629596142323	0.0	0.9233699028901681	-0.8317229072283903	0.0	0.8674821727574068	-0.8184830956995396	0.0	1.0401714320718811	-0.4411941875447923	0.0	1.1355607312030918	-0.4202006669609181	0.0	1.093984148604695	-0.45957466197204017	0.0	1.0163615008261673	-0.45377478626706214	0.0	1.0412472944886006	-0.5271692098715023	0.0	1.1151878824814623	-0.5644056534552241	0.0	1.0392917784317726	-0.42111346612448153	0.0	1.0927841692138702	-0.4740841008058487	0.0	1.1618565892002923	-0.4961377683288448	0.0
31	1.0436666666666665	0.9269402531378208	-0.5962899605146498	0.0	0.9224283724886603	-0.5958252630822999	0.0	0.9298389646709107	-0.7325950888686645	0.0	0.8965160460315377	-0.8707489311303348	0.0	0.9408706374818886	-0.8980895381377395	0.0	0.9298728338132413	-0.9062163924649949	0.0	0.8801434886087575	-0.8845504960399769	0.0	0.935826722548076	-0.5971969745515899	0.0	0.9389747994696499	-0.7281243745419735	0.0	0.9030267985430764	-0.8622644981389024	0.0	0.954068397225538	-0.8834867709306755	0.0	0.9403895668753628	-0.8809853079087335	0.0	0.8820361523899731	-0.8735270060454167	0.0	1.0254246729232788	-0.47002272897338393	0.0	1.1143209488793981	-0.43794043847038744	0.0	1.0788929320513834	-0.48147043625867053	0.0	1.0048061623875806	-0.4815940991817218	0.0	1.0436995189409977	-0.5396735914049797	0.0	1.123460382389308	-0.5542023958659293	0.0	1.0211083246594	-0.4512373649890778	0.0	1.088191074414355	-0.4876698047483374	0.0	1.1573219709317073	-0.48801687914425684	0.0
32	1.0773333333333333	0.93001557258593	-0.6441932128841374	0.0	0.9246103342921386	-0.6446060205185835	0.0	0.9368304308914815	-0.7814213205154369	0.0	0.903836014253597	-0.9175522334256789	0.0	0.9500943474417335	-0.9365333566868871	0.0	0.9397074247504842	-0.9473293744100065	0.0	0.8873162114053023	-0.9290648636793774	0.0	0.9392467129049235	-0.6457155558851064	0.0	0.9492407675031348	-0.7748063523636601	0.0	0.9130048047063983	-0.9088327636262017	0.0	0.9656303308323839	-0.922945572852115	0.0	0.9506651481948084	-0.9214889544727379	0.0	0.8905646893149932	-0.9174638975148195	0.0	1.0119768964070583	-0.49981952385184397	0.0	1.0927408319613536	-0.45809821312293236	0.0	1.0641628618812038	-0.5037856520065367	0.0	0.9930931642421355	-0.5095546831728874	0.0	1.0427302209019702	-0.54982918011046	0.0	1.1228536270468819	-0.5414134030583926	0.0	1.0056524990826354	-0.4848074756129852	0.0	1.0821842880781083	-0.5029020675353233	0.0	1.1452898308610477	-0.4829016023414458	0.0
33	1.111	0.9327050399534322	-0.6837140353971485	0.0	0.9258590722802967	-0.6849456749457499	0.0	0.9430273249155239	-0.8199111902321347	0.0	0.9058645035619965	-0.9496844578723955	0.0	0.9520002798072049	-0.9623343269278438	0.0	0.9419147786180054	-0.9737113207706679	0.0	0.8885954087932082	-0.9580881267894583	0.0	0.9432062441243724	-0.6860991823290432	0.0	0.958270072048535	-0.8113332331075852	0.0	0.9182856501109505	-0.9418918657764737	0.0	0.9694065669846486	-0.9507518543878761	0.0	0.9546816273251618	-0.9503307055179046	0.0	0.8937872375788392	-0.947788714742574	0.0	1.0012701273318665	-0.5275073662054551	0.0	1.073379464184746	-0.47769170150862844	0.0	1.0515750571810554	-0.5239641037492323	0.0	0.9823458116088117	-0.5349677960106235	0.0	1.039898864541078	-0.5572640352334189	0.0	1.1162923398555071	-0.5284488312299549	0.0	0.9954642802028871	-0.5186928741562288	0.0	1.0766587762712418	-0.5195424358351147	0.0	1.1305921021399297	-0.48288577559514523	0.0
34	1.1446666666666665	0.9340963047606269	-0.711953742362338	0.0	0.9255754738937901	-0.7137216335660053	0.0	0.9501143731914722	-0.843908189978309	0.0	0.9050595450363215	-0.964008584508952	0.0	0.9490751734019462	-0.9736440627665356	0.0	0.9391599826364314	-0.9834701614495774	0.0	0.8866202807809488	-0.9695445954881613	0.0	0.9465616886967374	-0.7151055351088491	0.0	0.9665235432405942	-0.8344213336482742	0.0	0.9198978533649053	-0.9579186441419351	0.0	0.9672924310391958	-0.9645532512254883	0.0	0.9539547048261894	-0.964971531067824	0.0	0.8934070170582408	-0.9619021100072241	0.0	0.9944632938476652	-0.5497922112260432	0.0	1.0586776037639796	-0.4936469041800638	0.0	1.0427799245367075	-0.5396600061242847	0.0	0.9739917523668055	-0.554894287737198	0.0	1.0368218743954587	-0.5615415160911119	0.0	1.1075051733536907	-0.5175539111596485	0.0	0.9920675848619326	-0.5486324158982182	0.0	1.073425766222337	-0.5364425652177214	0.0	1.118591241255137	-0.48828657450566404	0.0
